<svg xmlns="http://www.w3.org/2000/svg" width="1000" height="700" viewBox="0 0 1000 700">
<rect width="100%" height="100%" fill="white"/>
<text x="50" y="55" font-family="Arial" font-size="28" font-weight="bold">Sequence Diagram</text>
<defs><marker id="arrow" markerWidth="10" markerHeight="10" refX="8" refY="3" orient="auto"><path d="M0,0 L0,6 L9,3 z" fill="#333"/></marker></defs>
<rect x="60" y="120" width="150" height="65" rx="8" fill="#f5f5f5" stroke="#333" stroke-width="2"/>
<text x="135.0" y="159.5" text-anchor="middle" font-family="Arial" font-size="18">User</text>
<rect x="280" y="120" width="170" height="65" rx="8" fill="#f5f5f5" stroke="#333" stroke-width="2"/>
<text x="365.0" y="159.5" text-anchor="middle" font-family="Arial" font-size="18">main.py</text>
<rect x="510" y="120" width="170" height="65" rx="8" fill="#f5f5f5" stroke="#333" stroke-width="2"/>
<text x="595.0" y="159.5" text-anchor="middle" font-family="Arial" font-size="18">Model</text>
<rect x="740" y="120" width="170" height="65" rx="8" fill="#f5f5f5" stroke="#333" stroke-width="2"/>
<text x="825.0" y="159.5" text-anchor="middle" font-family="Arial" font-size="18">Analysis</text>
<line x1="210" y1="152" x2="280" y2="152" stroke="#333" stroke-width="2" marker-end="url(#arrow)"/>
<line x1="450" y1="152" x2="510" y2="152" stroke="#333" stroke-width="2" marker-end="url(#arrow)"/>
<line x1="680" y1="152" x2="740" y2="152" stroke="#333" stroke-width="2" marker-end="url(#arrow)"/>
<line x1="740" y1="185" x2="680" y2="185" stroke="#333" stroke-width="2" marker-end="url(#arrow)"/>
<line x1="680" y1="210" x2="450" y2="210" stroke="#333" stroke-width="2" marker-end="url(#arrow)"/>
<line x1="450" y1="235" x2="280" y2="235" stroke="#333" stroke-width="2" marker-end="url(#arrow)"/>
<line x1="280" y1="260" x2="210" y2="260" stroke="#333" stroke-width="2" marker-end="url(#arrow)"/>
</svg>